<svg width="21" height="20" viewBox="0 0 21 20" fill="none" xmlns="http://www.w3.org/2000/svg">
<path d="M18.3588 2.5H17.5255V0.833282C17.5255 0.373383 17.1521 0 16.692 0H15.8588C15.3987 0 15.0255 0.373383 15.0255 0.833282V2.5H6.69205V0.833282C6.69205 0.373383 6.31882 0 5.85876 0H5.02548C4.56543 0 4.19205 0.373383 4.19205 0.833282V2.5H3.35876C1.98044 2.5 0.858765 3.62167 0.858765 5V17.5C0.858765 18.8783 1.98044 20 3.35876 20H18.3588C19.7371 20 20.8588 18.8783 20.8588 17.5V5C20.8588 3.62167 19.7371 2.5 18.3588 2.5ZM19.192 17.5C19.192 17.9591 18.8179 18.3333 18.3588 18.3333H3.35876C2.89963 18.3333 2.52548 17.9591 2.52548 17.5V8.3667H19.192V17.5Z" fill="#BBBBBB"/>
</svg>
