<svg width="21" height="18" viewBox="0 0 21 18" fill="none" xmlns="http://www.w3.org/2000/svg">
<path fill-rule="evenodd" clip-rule="evenodd" d="M10.8587 5.77468L9.80606 3.85087C9.52175 3.33128 9.05807 2.65654 8.39444 2.1433L9.12857 1.19406C9.51737 1.49475 9.84608 1.83348 10.1197 2.17033C10.4379 2.56196 10.6816 2.95105 10.8588 3.27484C11.0359 2.95106 11.2797 2.56197 11.5978 2.17033C11.8715 1.83348 12.2002 1.49475 12.589 1.19406C13.466 0.515781 14.461 0.171875 15.5463 0.171875C18.5749 0.171875 20.8588 2.6491 20.8588 5.93414C20.8588 9.48313 18.0094 11.9113 13.6964 15.5868C12.9635 16.2114 12.1332 16.9189 11.2702 17.6737C11.1564 17.7733 11.0103 17.8281 10.8588 17.8281C10.7072 17.8281 10.5611 17.7733 10.4474 17.6737C9.58459 16.9192 8.7545 16.2118 8.02213 15.5876L8.02162 15.5872C3.7081 11.9113 0.858765 9.48313 0.858765 5.93414C0.858765 2.6491 3.14267 0.171875 6.17126 0.171875C7.25654 0.171875 8.25154 0.515781 9.12857 1.19406L8.39444 2.1433C7.72271 1.6238 6.98469 1.37188 6.17126 1.37188C3.89536 1.37188 2.05876 3.21817 2.05876 5.93414C2.05876 7.33948 2.60647 8.57165 3.74657 9.94736C4.91708 11.3598 6.61551 12.8123 8.79995 14.6738L8.79998 14.6739L8.80238 14.6759C9.42683 15.2081 10.1268 15.8046 10.8588 16.4405C11.5911 15.8043 12.2914 15.2075 12.9164 14.6749L12.918 14.6735L12.918 14.6735C15.1023 12.8121 16.8006 11.3597 17.971 9.94732C19.1111 8.57166 19.6588 7.33949 19.6588 5.93414C19.6588 3.21817 17.8222 1.37188 15.5463 1.37188C14.7328 1.37188 13.9948 1.6238 13.3231 2.1433L12.5923 1.19844L13.3231 2.1433C12.6595 2.65653 12.1958 3.3313 11.9115 3.8509L10.8587 5.77468ZM10.4825 16.7684C10.4816 16.7692 10.4807 16.77 10.4798 16.7708L10.4802 16.7704C10.481 16.7697 10.4817 16.7691 10.4825 16.7684ZM11.2351 16.7685C11.2361 16.7693 11.237 16.7701 11.2379 16.7709L11.2373 16.7703C11.2366 16.7697 11.2359 16.7691 11.2351 16.7685Z" fill="#BBBBBB"/>
</svg>
