<svg width="25" height="29" viewBox="0 0 25 29" fill="none" xmlns="http://www.w3.org/2000/svg">
<g filter="url(#filter0_d)">
<path d="M11.4838 6.375C11.4838 4.51088 10.2249 3 8.67126 3C7.11764 3 5.85876 4.51088 5.85876 6.375C5.85876 7.98488 6.79926 9.32587 8.05589 9.66337L6.99501 19.1224C6.98714 19.1842 6.98376 19.2484 6.98376 19.3125C6.98376 20.244 7.73976 21 8.67126 21C9.60277 21 10.3588 20.244 10.3588 19.3125C10.3588 19.2585 10.3565 19.2045 10.3509 19.1516L9.44864 9.60262C10.6209 9.1965 11.4838 7.91288 11.4838 6.375Z" fill="#BBBBBB"/>
<path d="M18.7962 3C18.4857 3 18.2337 3.252 18.2337 3.5625V6.375C18.2337 6.6855 17.9817 6.9375 17.6712 6.9375C17.3607 6.9375 17.1087 6.6855 17.1087 6.375V3.5625C17.1087 3.252 16.8567 3 16.5462 3C16.2357 3 15.9837 3.252 15.9837 3.5625V6.375C15.9837 6.6855 15.7317 6.9375 15.4212 6.9375C15.1107 6.9375 14.8587 6.6855 14.8587 6.375V3.5625C14.8587 3.252 14.6067 3 14.2962 3C13.9857 3 13.7337 3.252 13.7337 3.5625V6.9375C13.7337 8.27513 14.6742 9.3945 15.9286 9.67688L14.8688 19.1224C14.8621 19.1842 14.8587 19.2484 14.8587 19.3125C14.8587 20.244 15.6147 21 16.5462 21C17.4777 21 18.2337 20.244 18.2337 19.3125C18.2337 19.2585 18.2315 19.2045 18.2258 19.1516L17.3258 9.62625C18.4958 9.28537 19.3587 8.2155 19.3587 6.9375V3.5625C19.3587 3.252 19.1067 3 18.7962 3Z" fill="#BBBBBB"/>
</g>
<defs>
<filter id="filter0_d" x="-3.14124" y="0" width="32" height="32" filterUnits="userSpaceOnUse" color-interpolation-filters="sRGB">
<feFlood flood-opacity="0" result="BackgroundImageFix"/>
<feColorMatrix in="SourceAlpha" type="matrix" values="0 0 0 0 0 0 0 0 0 0 0 0 0 0 0 0 0 0 127 0"/>
<feOffset dy="4"/>
<feGaussianBlur stdDeviation="2"/>
<feColorMatrix type="matrix" values="0 0 0 0 0 0 0 0 0 0 0 0 0 0 0 0 0 0 0.25 0"/>
<feBlend mode="normal" in2="BackgroundImageFix" result="effect1_dropShadow"/>
<feBlend mode="normal" in="SourceGraphic" in2="effect1_dropShadow" result="shape"/>
</filter>
</defs>
</svg>
