<svg width="25" height="24" viewBox="0 0 25 24" fill="none" xmlns="http://www.w3.org/2000/svg">
<path d="M6.27791 3H5.30682C5.24154 3 5.17894 3.02593 5.13279 3.07209C5.08663 3.11824 5.0607 3.18084 5.0607 3.24611V8.54122C5.06066 8.58509 5.07236 8.62816 5.09459 8.66597L5.61706 9.55479L8.71894 14.8316L10.0219 17.0481C10.0437 17.085 10.0747 17.1156 10.1119 17.1369C10.1491 17.1582 10.1913 17.1694 10.2342 17.1694H10.506L10.3381 17.7872C10.2383 18.1963 10.2392 18.6234 10.3408 19.032C10.4424 19.4406 10.6417 19.8184 10.9215 20.1331C11.1746 20.4103 11.4836 20.6308 11.828 20.7802C12.1724 20.9296 12.5445 21.0044 12.9199 20.9998H20.0513C20.2655 20.9998 20.4708 20.9147 20.6223 20.7633C20.7737 20.6119 20.8588 20.4065 20.8588 20.1923C20.8588 19.9782 20.7737 19.7728 20.6223 19.6214C20.4708 19.4699 20.2655 19.3849 20.0513 19.3849H12.8923C12.7564 19.3872 12.6214 19.3624 12.4952 19.3119C12.369 19.2614 12.2541 19.1861 12.1574 19.0907C12.0418 18.9726 11.958 18.8272 11.9137 18.668C11.8695 18.5089 11.8662 18.3411 11.9042 18.1803L12.1792 17.1696H20.4908C20.5561 17.1696 20.6187 17.1436 20.6648 17.0975C20.711 17.0513 20.7369 16.9887 20.7369 16.9234V15.7619C20.736 14.8194 20.3611 13.9157 19.6946 13.2492C19.0281 12.5827 18.1243 12.208 17.1818 12.2072H13.1749L12.111 10.8719H16.1111C16.3349 10.8719 16.5495 10.783 16.7078 10.6247C16.866 10.4665 16.9549 10.2518 16.9549 10.028C16.9549 9.80424 16.866 9.58961 16.7078 9.43136C16.5495 9.27312 16.3349 9.18421 16.1111 9.18421H10.7658L9.02989 7.00603V5.75184C9.02903 5.02224 8.73881 4.32278 8.2229 3.80689C7.70699 3.291 7.00751 3.00082 6.27791 3Z" fill="#BBBBBB"/>
</svg>
