<svg width="21" height="20" viewBox="0 0 21 20" fill="none" xmlns="http://www.w3.org/2000/svg">
<path fill-rule="evenodd" clip-rule="evenodd" d="M13.2966 7.59497L10.8591 1.88823L8.42154 7.59498L2.25021 8.15516L6.9137 12.2444L5.53923 18.298L10.8587 15.1174L16.1781 18.2986L14.8035 12.2444L19.467 8.15516L13.2966 7.59497ZM20.8062 7.7188C20.6746 7.31383 20.3154 7.02711 19.8921 6.98881L14.1187 6.46467L11.837 1.12281C11.6686 0.73035 11.2853 0.477051 10.8586 0.477051C10.432 0.477051 10.0485 0.73035 9.88113 1.12281L7.59945 6.46467L1.82516 6.98881C1.40187 7.02788 1.04344 7.31459 0.910993 7.7188C0.779308 8.12377 0.900922 8.56796 1.22106 8.84873L5.58527 12.6755L4.29848 18.343C4.20433 18.7597 4.36608 19.1906 4.71185 19.4406C4.8977 19.5756 5.11606 19.6431 5.33518 19.6431C5.52347 19.6431 5.71192 19.593 5.88023 19.4923L10.8586 16.5156L15.8361 19.4923C16.2012 19.7105 16.6604 19.6905 17.0054 19.4406C17.3512 19.1906 17.5129 18.7597 17.4187 18.343L16.132 12.6755L20.4962 8.84873C20.8162 8.56796 20.9379 8.12469 20.8062 7.7188Z" fill="#BBBBBB"/>
</svg>
