<svg width="106" height="34" viewBox="0 0 106 34" fill="none" xmlns="http://www.w3.org/2000/svg">
<path fill-rule="evenodd" clip-rule="evenodd" d="M24.3554 0.148818C23.5776 0.326017 22.9656 0.53587 22.3295 0.843686C21.8193 1.09052 20.9083 1.67199 20.9083 1.75081C20.9083 1.8331 21.7109 2.38883 22.1875 2.63656C22.6377 2.87048 22.8435 2.93003 22.8435 2.8263C22.8435 2.79839 23.035 2.48781 23.269 2.13618C23.5421 1.7256 23.956 1.22822 24.4253 0.746323C24.8272 0.33352 25.1188 -0.00232887 25.0733 1.21648e-05C25.0277 0.00229318 24.7047 0.0692829 24.3554 0.148818ZM26.8349 0.0264839C26.8349 0.0446719 26.9349 0.146477 27.0571 0.252784C27.4959 0.634433 28.311 1.59852 28.7304 2.2318C28.9654 2.58668 29.1872 2.87709 29.2233 2.87709C29.3514 2.87709 30.1376 2.43925 30.5995 2.11067C30.8573 1.92735 31.0682 1.76954 31.0682 1.75999C31.0682 1.75045 30.8982 1.62361 30.6903 1.47811C29.8183 0.867817 28.7522 0.409514 27.6545 0.173009C27.3534 0.10812 27.0459 0.0411904 26.971 0.0242629C26.8961 0.00739544 26.8349 0.00835586 26.8349 0.0264839ZM24.8999 1.06128C24.1925 1.77128 23.343 2.9146 23.4045 3.07379C23.4438 3.17548 24.6294 3.46319 25.2172 3.51367L25.6859 3.55395V1.95496C25.6859 1.07551 25.6671 0.35597 25.6442 0.35597C25.6213 0.35597 25.2864 0.67333 24.8999 1.06128ZM26.2906 1.94884V3.55287L26.7885 3.50977C27.2503 3.46979 28.3196 3.2319 28.508 3.12722C28.5716 3.09192 28.5334 2.98814 28.3377 2.66423C27.884 1.91342 27.1917 1.09364 26.5872 0.591274L26.2906 0.344805V1.94884ZM19.9959 2.59196C18.9066 3.84321 18.2024 5.45643 18.1159 6.89887L18.0962 7.22901L19.8223 7.24492L21.5483 7.26083L21.6553 6.47688C21.8007 5.41177 22.1148 4.2607 22.4286 3.64345L22.5425 3.41937L22.0429 3.17116C21.7681 3.03466 21.2916 2.75055 20.9839 2.53986C20.6762 2.32916 20.4134 2.15677 20.3996 2.15677C20.386 2.15677 20.2043 2.35263 19.9959 2.59196ZM31.0682 2.46032C30.852 2.62239 30.3989 2.90554 30.0614 3.08958L29.4477 3.42417L29.6604 3.94598C29.9486 4.65255 30.2136 5.71544 30.292 6.47868C30.3276 6.82534 30.3663 7.14276 30.378 7.18399C30.3943 7.2418 30.796 7.25903 32.1247 7.25903H33.8501V7.08951C33.8501 6.78428 33.6588 5.7984 33.5045 5.30816C33.3091 4.68755 32.9662 3.97959 32.5952 3.43101C32.2939 2.98549 31.5779 2.15317 31.5029 2.16127C31.48 2.16373 31.2844 2.29831 31.0682 2.46032ZM22.8256 4.15583C22.7059 4.46623 22.5521 4.93168 22.4839 5.19021C22.3361 5.75062 22.1509 7.04155 22.2001 7.16893C22.23 7.24612 22.4819 7.25903 23.9604 7.25903H25.6859V5.67733V4.09557L25.1542 4.05811C24.7067 4.0266 23.4736 3.76476 23.1399 3.63042C23.0627 3.59939 22.9992 3.70557 22.8256 4.15583ZM28.2428 3.78079C27.6764 3.95336 26.9587 4.07762 26.5282 4.07762H26.2906V5.66832V7.25903H28.0142H29.7378V6.90673C29.7378 6.20142 29.4399 4.93282 29.0638 4.03596C28.9626 3.79477 28.8619 3.60041 28.8401 3.60413C28.8183 3.60785 28.5495 3.68733 28.2428 3.78079ZM18.1051 8.11441C18.2878 9.83207 18.9791 11.3707 20.1335 12.629L20.4066 12.9268L20.951 12.5567C21.2503 12.3532 21.727 12.0702 22.0102 11.928L22.525 11.6692L22.3286 11.1848C21.9652 10.2886 21.7207 9.2755 21.6021 8.17443L21.5617 7.79927H19.8166H18.0716L18.1051 8.11441ZM22.2059 8.23446C22.2991 9.25335 22.5667 10.3409 22.9081 11.089C23.0561 11.4132 23.0964 11.4593 23.189 11.4106C23.4217 11.2879 24.6496 11.0295 25.1539 10.9971L25.6859 10.9629V9.38109V7.79927H23.926H22.166L22.2059 8.23446ZM26.2906 9.38997V10.9807H26.5851C26.9733 10.9807 27.7742 11.1218 28.3887 11.2985L28.8829 11.4405L29.068 11.0029C29.4381 10.1278 29.737 8.83839 29.7375 8.11441L29.7378 7.79927H28.0142H26.2906V9.38997ZM30.3422 8.08439C30.3411 8.96294 29.9694 10.459 29.4728 11.584C29.4415 11.6548 29.5225 11.7197 29.8094 11.8541C30.0172 11.9515 30.4874 12.2297 30.8544 12.4724L31.5218 12.9137L31.8755 12.5328C32.9398 11.3868 33.657 9.79209 33.8221 8.20445L33.8642 7.79927H32.1033H30.3425L30.3422 8.08439ZM0.769836 10.0576C0.769836 10.0782 0.889216 10.2605 1.03508 10.4628C1.40798 10.9799 2.03372 11.5557 2.41327 11.7311L2.7353 11.8799L8.54098 11.8814C13.0881 11.8825 14.3794 11.8993 14.4978 11.9585C14.6998 12.0595 14.7239 12.2634 14.5483 12.3855C14.4245 12.4716 13.8451 12.4813 8.86011 12.4813C5.6154 12.4813 3.30982 12.5037 3.30982 12.5353C3.30982 12.6497 3.79175 13.2931 4.13102 13.6316C4.32696 13.8271 4.64755 14.0662 4.84524 14.1642L5.20386 14.3422L10.4103 14.3431C14.4763 14.3437 15.6498 14.3605 15.7678 14.4196C15.9698 14.5206 15.9939 14.7245 15.8183 14.8466C15.6948 14.9325 15.1607 14.9424 10.6721 14.9424H5.66384L5.90054 15.2876C6.35786 15.9545 7.04402 16.4954 7.68458 16.6938C8.01291 16.7956 8.3526 16.8033 12.5243 16.8033C16.4871 16.8033 17.0266 16.8142 17.1453 16.8967C17.311 17.0118 17.3134 17.07 17.1588 17.2234C17.0401 17.3413 16.9572 17.3435 12.6231 17.3435C10.195 17.3435 8.20836 17.3652 8.20836 17.3918C8.20836 17.5132 8.61911 18.0627 8.93728 18.3671C9.3695 18.7804 9.89032 19.0627 10.4296 19.1762C11.0545 19.3076 19.271 19.3043 20.0336 19.1723C20.8799 19.0257 21.4791 18.7041 22.1488 18.0367C22.5123 17.6745 22.7491 17.3798 22.8594 17.1522C22.9504 16.9644 23.0248 16.7888 23.0246 16.762C23.0244 16.7352 22.7046 16.5716 22.314 16.3984C19.9107 15.3329 18.063 13.7294 17.1432 11.9111C16.945 11.5192 16.6019 10.5615 16.525 10.1853L16.4913 10.0203H8.63055C4.30713 10.0203 0.769836 10.0371 0.769836 10.0576ZM35.4632 10.0653C35.4484 10.09 35.3794 10.3179 35.3097 10.5717C34.78 12.5017 33.3672 14.2444 31.3017 15.5154C30.7295 15.8676 29.0912 16.6832 28.9562 16.6832C28.9083 16.6832 28.8972 16.7301 28.9241 16.8183C29.119 17.458 29.9725 18.3752 30.7356 18.7652C31.7033 19.2598 31.3326 19.2282 36.4166 19.2504C39.4589 19.2636 41.0871 19.2487 41.3697 19.2052C41.9995 19.1082 42.5084 18.834 43.0424 18.3038C43.2919 18.0561 43.559 17.7387 43.636 17.5985L43.7759 17.3435H39.3707C35.4816 17.3435 34.9499 17.3326 34.8312 17.25C34.6656 17.135 34.6572 16.9486 34.8137 16.8654C34.8914 16.8241 36.4359 16.8033 39.4035 16.8033C43.6944 16.8033 43.892 16.7984 44.2607 16.6842C44.4721 16.6187 44.7656 16.4851 44.9131 16.3874C45.273 16.1487 45.8449 15.5854 46.0705 15.2474L46.254 14.9724L41.2104 14.9424C35.8595 14.9106 35.9668 14.9169 35.9668 14.6371C35.9668 14.3736 35.9644 14.3737 41.5305 14.3422L46.8222 14.3122L47.1226 14.1621C47.2878 14.0795 47.5901 13.8499 47.7943 13.6519C48.1446 13.3122 48.6062 12.6824 48.6062 12.5442C48.6062 12.5008 46.8813 12.4813 43.0424 12.4813C37.5593 12.4813 37.4769 12.4796 37.3577 12.3613C37.2119 12.2166 37.2073 12.159 37.3318 12.0354C37.3841 11.9835 37.4317 11.935 37.4376 11.9275C37.4436 11.9201 40.129 11.8998 43.4053 11.8825L49.3622 11.8511L49.6041 11.7051C50.046 11.4383 50.4151 11.0959 50.7826 10.6118C50.9826 10.3484 51.1462 10.1076 51.1462 10.0766C51.1462 10.009 35.5036 9.99768 35.4632 10.0653ZM59.25 20.5249V31.0296H59.4616H59.6733V20.5249V10.0203H59.4616H59.25V20.5249ZM69.3277 10.9957C69.0372 12.5349 68.458 15.5973 68.1141 17.4113C67.9287 18.3895 67.7771 19.2202 67.7771 19.2571C67.7771 19.2985 67.9032 19.3244 68.1049 19.3244C68.4136 19.3244 68.4347 19.3148 68.468 19.1593C68.528 18.8785 68.9261 16.6663 68.9261 16.6133C68.9261 16.5857 69.3838 16.5631 69.9432 16.5631H70.9604L71.058 17.1184C71.1117 17.4237 71.2182 18.0451 71.2946 18.499L71.4335 19.3244H71.7824C71.9743 19.3244 72.1313 19.3123 72.1313 19.2975C72.1313 19.2827 72.0104 18.6412 71.8627 17.8719C71.6002 16.505 70.8176 12.3398 70.5482 10.8756L70.4129 10.1403H69.951H69.4891L69.3277 10.9957ZM91.5441 11.761C91.5441 12.6194 91.5275 13.3217 91.5074 13.3217C91.4873 13.3217 91.3852 13.2501 91.2806 13.1625C91.0004 12.9279 90.7455 12.8415 90.334 12.8415C89.7588 12.8415 89.3226 13.124 89.0829 13.6519C88.9865 13.8641 88.9716 14.1172 88.9549 15.8336C88.9438 16.9633 88.9618 17.9402 88.9978 18.1697C89.117 18.9299 89.5184 19.3229 90.2276 19.3738C90.6545 19.4044 91.0249 19.2802 91.2729 19.0232C91.3679 18.9247 91.4678 18.8442 91.4949 18.8442C91.5219 18.8442 91.5441 18.9522 91.5441 19.0843V19.3244H91.8162H92.0883V14.7624V10.2003H91.8162H91.5441V11.761ZM105.03 11.761C105.03 12.6194 105.014 13.3217 104.994 13.3217C104.973 13.3217 104.871 13.2501 104.767 13.1625C104.487 12.928 104.232 12.8415 103.821 12.8415C103.381 12.8415 103.13 12.9386 102.871 13.2095C102.472 13.6269 102.463 13.6811 102.441 15.8812C102.429 17.1287 102.445 18.0004 102.486 18.2188C102.625 18.9631 102.982 19.3147 103.653 19.3683C104.15 19.4078 104.431 19.3172 104.768 19.0086L105.03 18.7688V19.0466V19.3244H105.333H105.635V14.7624V10.2003H105.333H105.03V11.761ZM93.5781 11.5359L93.5957 12.0311L93.8701 12.0494L94.1445 12.0678V11.5542V11.0407H93.8525H93.5606L93.5781 11.5359ZM95.7639 11.9527L95.7471 12.8115L95.3994 12.8295L95.0517 12.8475V13.0846V13.3217H95.4145H95.7774V16.1396V18.9575L95.9134 19.1141C96.0663 19.2899 96.3815 19.3809 96.8458 19.383C97.2938 19.385 97.3497 19.3511 97.3497 19.0778V18.8442H96.9566C96.2761 18.8442 96.3216 19.0508 96.3216 15.9629V13.3217H96.8357H97.3497V13.084V12.8464L96.8508 12.8289L96.3519 12.8115L96.3216 11.9711L96.2914 11.1307L96.0361 11.1124L95.7807 11.094L95.7639 11.9527ZM70.0147 11.2962C70.0147 11.3047 70.1916 12.32 70.4078 13.5526C70.624 14.7852 70.8008 15.8317 70.8008 15.8782C70.8008 15.9472 70.6376 15.9629 69.9199 15.9629C69.1094 15.9629 69.0414 15.9545 69.0698 15.8578C69.1025 15.747 69.8937 11.3901 69.8937 11.321C69.8937 11.2989 69.9209 11.2808 69.9542 11.2808C69.9874 11.2808 70.0147 11.2877 70.0147 11.2962ZM24.8997 11.5866C24.3047 11.6525 23.3878 11.8855 23.3878 11.9709C23.3878 12.0624 23.7649 12.6781 24.0681 13.0816C24.3502 13.4571 25.2697 14.4138 25.5196 14.5919L25.6859 14.7105V13.1157V11.5209L25.5196 11.5287C25.4281 11.533 25.1492 11.5591 24.8997 11.5866ZM26.2906 13.1157V14.7105L26.4569 14.5923C26.656 14.4508 27.3872 13.6996 27.6939 13.3217C28.0303 12.9069 28.5966 11.9846 28.5444 11.9362C28.4266 11.827 26.8283 11.5267 26.336 11.5214C26.311 11.5212 26.2906 12.2386 26.2906 13.1157ZM22.2601 12.3949C21.7959 12.6342 20.9573 13.199 20.9273 13.2926C20.9007 13.3752 21.7346 13.9194 22.3295 14.2076C23.1065 14.5843 24.0631 14.8838 24.7963 14.9804L25.1023 15.0207L24.5483 14.4671C23.9537 13.873 23.3435 13.1041 23.0161 12.5365C22.9045 12.343 22.7821 12.184 22.7439 12.183C22.7057 12.182 22.488 12.2774 22.2601 12.3949ZM28.7297 12.8265C28.2719 13.5167 27.5816 14.3353 27.1084 14.7486C26.7691 15.045 26.8055 15.0582 27.548 14.9084C28.5643 14.7033 29.7395 14.208 30.6379 13.6062L31.0864 13.3059L30.9413 13.1926C30.4661 12.8219 29.3679 12.1812 29.2076 12.1812C29.1801 12.1812 28.9651 12.4716 28.7297 12.8265ZM83.4043 12.8907C83.2079 13.0168 82.9206 13.2599 82.7658 13.431C82.611 13.602 82.4682 13.7419 82.4483 13.7419C82.4285 13.7419 82.4122 13.5393 82.4122 13.2917V12.8415H82.1401H81.8679V16.0829V19.3244H82.1401H82.4122V17.0473C82.4122 15.6539 82.436 14.708 82.4735 14.6101C82.6786 14.0746 83.1914 13.5603 83.6439 13.4363L83.8636 13.3761V13.0188C83.8636 12.8222 83.8406 12.6614 83.8125 12.6614C83.7844 12.6614 83.6007 12.7646 83.4043 12.8907ZM85.5302 12.871C85.0384 13.0449 84.7592 13.3688 84.6497 13.8925C84.6051 14.1055 84.5885 14.9184 84.6008 16.2749C84.6188 18.2515 84.6248 18.3435 84.7501 18.574C85.0433 19.1134 85.4645 19.3428 86.1617 19.3428C87.1973 19.3428 87.6438 18.8721 87.7154 17.7044L87.7523 17.1034H87.4408H87.1293L87.1292 17.6286C87.1291 18.2429 87.0301 18.4965 86.706 18.7131C86.5245 18.8344 86.4365 18.8514 86.0891 18.8326C85.7599 18.8147 85.6538 18.7827 85.5239 18.6623C85.2029 18.3646 85.1718 18.2337 85.1677 17.1634L85.1638 16.173L86.4338 16.143L87.7038 16.1129L87.721 15.4264C87.742 14.5903 87.6549 13.7562 87.5196 13.4964C87.2809 13.0383 86.766 12.779 86.1053 12.7841C85.9202 12.7856 85.6613 12.8247 85.5302 12.871ZM99.0163 12.8674C98.5283 13.0474 98.2486 13.3666 98.1404 13.8671C98.0521 14.2761 98.0536 17.9843 98.1422 18.3339C98.2247 18.659 98.5508 19.0469 98.8832 19.2153C99.2097 19.3807 99.983 19.3942 100.343 19.2409C100.946 18.9843 101.157 18.5915 101.158 17.7187L101.16 17.1034H100.888H100.615L100.615 17.6286C100.615 18.2402 100.516 18.4973 100.198 18.7079C100.049 18.8066 99.9048 18.8442 99.673 18.8442C99.2801 18.8442 99.0999 18.7797 98.9026 18.5686C98.6806 18.3309 98.6197 17.9968 98.6197 17.0168V16.143H99.8897H101.16V15.04C101.16 13.8268 101.106 13.5521 100.81 13.2421C100.719 13.1478 100.537 13.0146 100.404 12.9461C100.089 12.7844 99.3546 12.7427 99.0163 12.8674ZM73.9776 12.9372C73.6843 13.0438 73.4331 13.2729 73.2597 13.5918C73.1326 13.8256 73.1292 13.8911 73.1292 16.0829V18.3339L73.2751 18.6257C73.5412 19.158 74.142 19.4376 74.8599 19.3631C75.5014 19.2966 75.9107 19.0421 76.129 18.574C76.2185 18.3823 76.2412 18.1859 76.2423 17.5986L76.2437 16.8633H75.9779H75.7122L75.6906 17.5792C75.6674 18.3511 75.6207 18.4778 75.2599 18.7451C75.0597 18.8935 74.4766 18.9025 74.2017 18.7614C73.7103 18.5092 73.6206 17.9952 73.6555 15.6327C73.6803 13.9578 73.707 13.8002 74.0134 13.5205C74.0925 13.4483 74.2835 13.3557 74.4379 13.3148C74.8328 13.21 75.2174 13.3564 75.4456 13.6985C75.5898 13.9145 75.6111 14.0114 75.6295 14.5357L75.6505 15.1286L75.9319 15.1106L76.2134 15.0925L76.2028 14.5073C76.1814 13.3358 75.7127 12.8353 74.6472 12.8457C74.4109 12.848 74.1097 12.8892 73.9776 12.9372ZM78.2581 12.9401C77.9231 13.0579 77.6041 13.4174 77.4868 13.8092C77.3517 14.2609 77.3485 17.8943 77.4829 18.3434C77.613 18.7784 77.8048 19.026 78.1472 19.2008C78.4062 19.333 78.5243 19.354 78.9939 19.352C79.5956 19.3493 79.8768 19.2486 80.1865 18.9247C80.4722 18.6259 80.5375 18.377 80.5375 17.5855V16.8633H80.2704H80.0033L79.9831 17.5795C79.9659 18.1898 79.9445 18.32 79.8382 18.4611C79.6009 18.7762 79.4233 18.8638 79.0296 18.8602C78.5491 18.8557 78.3138 18.7195 78.1184 18.3329L77.9672 18.0338V16.143C77.9672 15.103 77.989 14.1503 78.0155 14.0258C78.0918 13.6685 78.3689 13.4019 78.7519 13.3168C79.0531 13.2499 79.0983 13.2551 79.3677 13.3882C79.7798 13.5917 79.8868 13.8068 79.9288 14.5169L79.9629 15.0925L80.2582 15.1111L80.5535 15.1297L80.5109 14.5108C80.4454 13.5603 80.1834 13.1117 79.5759 12.9098C79.2926 12.8157 78.5643 12.8324 78.2581 12.9401ZM93.57 16.0829V19.3244H93.8573H94.1445V16.0829V12.8415H93.8573H93.57V16.0829ZM86.712 13.446C87.0376 13.6762 87.0945 13.8668 87.1187 14.8074L87.1407 15.6628H86.1674H85.1941V14.8505C85.1941 13.9737 85.2456 13.7564 85.511 13.5137C85.8137 13.2369 86.3716 13.2054 86.712 13.446ZM100.198 13.446C100.519 13.673 100.577 13.8672 100.604 14.8074L100.629 15.6628H99.6545H98.6802V14.8194C98.6802 13.92 98.7152 13.777 98.9992 13.5137C99.2977 13.237 99.8577 13.2054 100.198 13.446ZM90.9891 13.4839C91.2063 13.6436 91.4096 13.9494 91.4862 14.2317C91.5252 14.3754 91.5423 15.1651 91.5314 16.3131L91.5138 18.1629L91.3474 18.4123C91.1208 18.752 90.7675 18.9262 90.3798 18.8892C90.0365 18.8564 89.8181 18.7149 89.6603 18.423C89.5574 18.2325 89.5483 18.0447 89.5483 16.1077C89.5483 14.0145 89.5493 13.9983 89.6859 13.7972C89.9165 13.4576 90.1958 13.3066 90.5356 13.338C90.6961 13.3528 90.9002 13.4185 90.9891 13.4839ZM104.324 13.4036C104.596 13.5161 104.828 13.8087 104.938 14.1758C105.056 14.5702 105.073 17.8015 104.959 18.1299C104.782 18.6401 104.358 18.9361 103.871 18.8897C103.523 18.8565 103.305 18.7159 103.146 18.423C103.044 18.2327 103.034 18.0452 103.034 16.1259C103.034 13.8901 103.037 13.8667 103.346 13.5804C103.623 13.3241 103.978 13.2599 104.324 13.4036ZM25.5972 21.2002C25.5413 21.3716 25.1416 23.4095 25.1416 23.523C25.1416 23.6439 25.1691 23.6463 26.5971 23.6463C27.9547 23.6463 28.0505 23.6534 28.0217 23.7513C28.0047 23.8091 27.9058 24.4101 27.802 25.0869C27.6981 25.7637 27.4516 27.3476 27.2543 28.6066C27.0569 29.8656 26.8954 30.9258 26.8954 30.9626C26.8954 31.0102 27.367 31.0296 28.5271 31.0296H30.1588L30.1884 30.8945C30.2047 30.8202 30.3438 29.9221 30.4975 28.8986C30.6511 27.8752 30.8913 26.2815 31.0311 25.357L31.2853 23.6763L32.6887 23.6602C33.4605 23.6513 34.092 23.6236 34.092 23.5986C34.092 23.5735 34.2009 23.0176 34.3339 22.3632C34.467 21.7087 34.5758 21.1625 34.5758 21.1492C34.5758 21.136 32.5611 21.1252 30.0987 21.1252C26.5704 21.1252 25.6164 21.1411 25.5972 21.2002ZM9.88161 21.7104C9.75546 22.3253 8.55289 28.082 8.2054 29.7348C8.07399 30.3597 7.96646 30.9067 7.96646 30.9503C7.96646 31.014 8.29224 31.0296 9.62955 31.0296C10.5442 31.0296 11.2926 31.0176 11.2926 31.0029C11.2926 30.9883 11.4273 30.3332 11.5919 29.5473C11.7565 28.7613 12.1654 26.7947 12.5005 25.177C12.8357 23.5592 13.1608 21.9993 13.2231 21.7104L13.3362 21.1852H11.6628H9.98944L9.88161 21.7104ZM16.9932 23.9317C16.2202 25.442 15.0835 27.6573 14.4671 28.8546L13.3464 31.0315L15.0178 31.0155L16.6891 30.9995L16.9471 30.4293L17.2052 29.859H18.8602H20.5152L20.6002 30.4443L20.6853 31.0296H22.218C23.4866 31.0296 23.7507 31.0152 23.7507 30.9461C23.7507 30.9001 23.4801 29.5833 23.1494 28.0198C22.8188 26.4563 22.3609 24.2856 22.1319 23.1961L21.7156 21.2152L20.057 21.2005L18.3985 21.1858L16.9932 23.9317ZM38.3974 21.3893C38.33 21.5027 37.9291 22.2797 37.5066 23.1161C37.0841 23.9524 36.7184 24.6637 36.6939 24.6968C36.6241 24.7911 33.4873 30.9504 33.4873 30.9932C33.4873 31.0142 34.2269 31.0243 35.1308 31.0155L36.7744 30.9995L37.0282 30.4293L37.282 29.859L38.9033 29.843C39.795 29.8342 40.5454 29.8478 40.5708 29.873C40.5961 29.8984 40.6492 30.169 40.6885 30.4743L40.7602 31.0296H42.2944C43.7155 31.0296 43.8286 31.0218 43.8279 30.9245C43.8275 30.8668 43.3701 28.6585 42.8115 26.0173L41.7959 21.2152L40.1579 21.1992L38.5198 21.1833L38.3974 21.3893ZM69.394 22.3084C69.3405 22.5985 68.9548 24.6424 68.5369 26.8504C68.119 29.0583 67.777 30.8952 67.777 30.9322C67.7769 30.9763 67.8917 30.9925 68.1099 30.979C68.3932 30.9614 68.447 30.9391 68.4711 30.8289C68.5175 30.617 68.9266 28.3022 68.9263 28.2533C68.9262 28.2285 69.3842 28.2083 69.944 28.2083H70.962L71.1971 29.5842L71.4322 30.9602L71.7833 30.9799C72.1295 30.9992 72.1341 30.9974 72.1046 30.8495C72.0882 30.7669 71.9496 30.0241 71.7968 29.1987C71.6439 28.3734 71.3983 27.0633 71.2512 26.2875C71.104 25.5116 70.8533 24.188 70.694 23.3462L70.4044 21.8155L69.9478 21.7981L69.4913 21.7808L69.394 22.3084ZM86.8269 23.6463V24.4867H86.4641H86.1012V24.7268V24.9669H86.4641H86.8269L86.8278 27.7431C86.8285 29.8415 86.8471 30.5559 86.9043 30.6694C87.0294 30.918 87.3376 31.0294 87.9004 31.0294L88.3993 31.0296V30.7632V30.4969L88.0007 30.5079C87.3284 30.5265 87.3671 30.7084 87.3857 27.6156L87.4015 24.9969L87.9004 24.9795L88.3993 24.962V24.7268V24.4915L87.9004 24.4741L87.4015 24.4566L87.3847 23.6313L87.3678 22.8059H87.0974H86.8269V23.6463ZM70.069 23.2411C70.1037 23.4144 70.2434 24.2045 70.3796 24.9969C70.5159 25.7892 70.6758 26.7009 70.735 27.0228L70.8428 27.608H69.9438H69.0447L69.0744 27.473C69.0907 27.3987 69.2687 26.4195 69.4701 25.297C69.9176 22.8021 69.8923 22.926 69.9547 22.926C69.983 22.926 70.0344 23.0678 70.069 23.2411ZM39.7163 24.3249C39.7163 24.3534 40.1948 27.4373 40.228 27.623L40.2575 27.7881H39.2007C38.6195 27.7881 38.1439 27.7759 38.1439 27.7609C38.1439 27.7459 38.4705 26.9883 38.8696 26.0774C39.2687 25.1664 39.5953 24.3953 39.5953 24.3638C39.5953 24.3323 39.6225 24.3066 39.6558 24.3066C39.6891 24.3066 39.7163 24.3148 39.7163 24.3249ZM19.6619 24.5317C19.6803 24.6224 19.7927 25.345 19.9119 26.1374C20.0311 26.9297 20.1425 27.6253 20.1597 27.6831C20.1884 27.7803 20.1116 27.7881 19.1283 27.7881C18.544 27.7881 18.0659 27.7671 18.0659 27.7413C18.0659 27.6983 18.2088 27.3681 19.1947 25.1319C19.3803 24.711 19.5539 24.3666 19.5804 24.3666C19.607 24.3666 19.6437 24.4409 19.6619 24.5317ZM73.9733 24.5395C73.6775 24.6729 73.4276 24.9544 73.3386 25.2547C73.2945 25.4036 73.279 26.2507 73.2917 27.8181C73.3131 30.4665 73.301 30.3982 73.8103 30.7535C74.2662 31.0715 74.9385 31.0482 75.4536 30.6964L75.7599 30.4873V31.1865C75.7599 32.0071 75.6792 32.2019 75.2547 32.4059C74.6131 32.7142 73.7642 32.4043 73.7642 31.8618C73.7642 31.6961 73.7534 31.6898 73.4708 31.6898H73.1775L73.226 31.9945C73.2999 32.4585 73.4429 32.6553 73.8555 32.8604C74.1683 33.0158 74.2839 33.0403 74.7018 33.0397C75.4599 33.0385 75.9415 32.7579 76.2457 32.14C76.3201 31.9889 76.3372 31.3594 76.3517 28.2233L76.369 24.4867H76.0644H75.7599V24.6998V24.913L75.5633 24.7669C75.4552 24.6866 75.2797 24.5772 75.1732 24.5238C74.907 24.3902 74.2864 24.3983 73.9733 24.5395ZM78.6761 24.5149C78.3074 24.6292 78.0318 24.8594 77.8676 25.1903C77.726 25.4758 77.7253 25.4875 77.7253 27.6981C77.7253 30.138 77.7337 30.2049 78.0836 30.5626C78.3966 30.8824 78.6836 30.993 79.207 30.9955C79.74 30.998 80.0457 30.9054 80.3341 30.6542C80.6754 30.3567 80.7413 30.1738 80.7772 29.4237L80.8096 28.7484L80.5223 28.7484L80.2351 28.7485V29.2576C80.2351 30.1572 79.9736 30.4988 79.2803 30.505C78.8532 30.5089 78.6002 30.3867 78.4115 30.0856C78.2796 29.875 78.2681 29.786 78.2485 28.8236L78.2274 27.7881H79.5034H80.7794V26.6883C80.7794 25.8439 80.7572 25.524 80.6839 25.3105C80.4489 24.6259 79.5137 24.2553 78.6761 24.5149ZM83.4053 24.5118C83.303 24.556 83.1225 24.6765 83.0043 24.7795C82.886 24.8826 82.7725 24.9669 82.752 24.9669C82.7314 24.9669 82.7146 24.8588 82.7146 24.7268V24.4867H82.4424H82.1703V27.7435V31.0004L82.4424 30.979L82.7146 30.9575V28.3184C82.7146 26.4885 82.7353 25.6391 82.7823 25.5482C82.9173 25.2869 83.2257 25.0276 83.5149 24.9322C83.8606 24.8182 84.1408 24.8528 84.3789 25.0385C84.706 25.294 84.7103 25.336 84.7103 28.2664V30.9695H84.8867C84.9838 30.9695 85.1073 30.9863 85.1611 31.0068C85.2506 31.0409 85.2575 30.7926 85.2416 28.1061L85.2243 25.168L85.062 24.9247C84.8387 24.5898 84.4811 24.426 83.9806 24.429C83.7666 24.4303 83.5077 24.4675 83.4053 24.5118ZM75.3037 25.0936C75.418 25.1713 75.5674 25.3336 75.6357 25.4542C75.7541 25.6632 75.7599 25.7674 75.7599 27.6795V29.6854L75.5866 29.9566C75.1702 30.6084 74.1802 30.6175 73.9085 29.9721C73.8426 29.8155 73.8246 29.3362 73.8246 27.7312C73.8246 25.9925 73.8391 25.6537 73.9222 25.4475C74.0195 25.2063 74.2298 25.0107 74.4596 24.9478C74.6943 24.8836 75.0972 24.9531 75.3037 25.0936ZM79.7791 25.0771C80.1305 25.2808 80.2025 25.5027 80.2256 26.4525L80.2464 27.3079H79.2339H78.2214L78.2546 26.4761C78.2896 25.5973 78.3392 25.4181 78.6188 25.1588C78.9065 24.8921 79.4 24.8574 79.7791 25.0771Z" fill="#42424F"/>
</svg>
