<svg width="40" height="40" viewBox="0 0 40 40" fill="none" xmlns="http://www.w3.org/2000/svg">
<path fill-rule="evenodd" clip-rule="evenodd" d="M20 29C10.71 29 1.9828 15.2194 6.00664 11.2382C8.23629 9.0322 10.1525 10.1649 12.6032 11.6136C14.5753 12.7794 16.8936 14.1498 20 14.1498C23.1064 14.1498 25.4246 12.7794 27.3968 11.6136C29.8475 10.1649 31.7637 9.0322 33.9934 11.2382C38.0172 15.2194 29.29 29 20 29ZM21.5476 20.0171C20.6929 19.1715 19.3071 19.1715 18.4524 20.0171C17.5977 20.8628 17.5977 22.2338 18.4524 23.0794C19.3071 23.9251 20.6929 23.9251 21.5476 23.0794C22.4023 22.2338 22.4023 20.8628 21.5476 20.0171Z" stroke="black" stroke-width="2"/>
</svg>