<svg width="78" height="27" viewBox="0 0 78 27" fill="none" xmlns="http://www.w3.org/2000/svg">
<path d="M76.2163 9.2313H77.8072V11.8715C77.4216 12.1115 77.0358 12.3515 76.5536 12.4955C76.0717 12.6395 75.5896 12.6876 75.1075 12.6876C74.4324 12.6876 73.8057 12.5436 73.2755 12.2555C72.745 11.9675 72.3112 11.5835 72.0219 11.0554C71.7326 10.5274 71.5399 9.95135 71.5399 9.32729C71.5399 8.70325 71.6845 8.12721 72.0219 7.59917C72.3112 7.07113 72.745 6.68709 73.3236 6.39907C73.8539 6.11105 74.4807 5.96704 75.1556 5.96704C75.7342 5.96704 76.3126 6.06305 76.7947 6.25506C77.2768 6.44707 77.6626 6.73509 78 7.11912L76.843 8.17521C76.409 7.69517 75.8788 7.45516 75.3002 7.45516C74.77 7.45516 74.2878 7.59917 73.9503 7.93519C73.6128 8.27122 73.4682 8.70325 73.4682 9.2793C73.4682 9.61531 73.5647 9.95135 73.7093 10.2394C73.8539 10.5274 74.0949 10.7194 74.336 10.9114C74.6253 11.0554 74.9146 11.1514 75.3002 11.1514C75.6377 11.1514 75.9752 11.1034 76.2644 10.9594V9.2313H76.2163Z" fill="#42424F"/>
<path d="M70.3828 6.15903V12.5435H68.8401L65.9956 9.13527V12.5435H64.2119V6.15903H65.7545L68.5991 9.5673V6.15903H70.3828Z" fill="#42424F"/>
<path d="M62.7655 6.15903H60.9335V12.5915H62.7655V6.15903Z" fill="#42424F"/>
<path d="M53.1235 6.15903H56.1607C56.8839 6.15903 57.5106 6.30306 58.0409 6.54307C58.5713 6.78309 59.0051 7.16712 59.2945 7.64715C59.5837 8.1272 59.7283 8.70324 59.7283 9.32729C59.7283 9.95133 59.5837 10.5274 59.2945 11.0074C59.0051 11.4874 58.5713 11.8715 58.0409 12.1115C57.5106 12.3515 56.8839 12.4955 56.1607 12.4955H53.1235V6.15903ZM56.1175 11.0554C56.6477 11.0554 57.125 10.9594 57.4625 10.6234C57.8 10.3354 57.9446 9.90334 57.9446 9.32729C57.9446 8.79925 57.8 8.36722 57.4625 8.03118C57.125 7.74316 56.691 7.55115 56.1126 7.55115H54.9555V11.0554H56.1175Z" fill="#42424F"/>
<path d="M51.6773 6.15903V12.5435H50.1828L47.3382 9.13527V12.5435H45.5545V6.15903H47.049L49.8934 9.5673V6.15903H51.6773Z" fill="#42424F"/>
<path d="M44.1081 6.15903H42.2761V12.5915H44.1081V6.15903Z" fill="#42424F"/>
<path d="M41.4081 6.15903L39.3351 12.5435H37.3585L36.1532 8.65524L34.8516 12.5435H32.8748L30.8019 6.15903H32.6821L33.9838 10.2394L35.3337 6.15903H37.0209L38.3227 10.2874L39.6726 6.15903H41.4081Z" fill="#42424F"/>
<path d="M57.2608 19.2512V20.6913H52.0541V14.2587H57.1162V15.6508H53.886V16.755H56.7305V18.099H53.886V19.2512H57.2608Z" fill="#42424F"/>
<path d="M50.7522 19.2512V20.6913H45.5937V14.2587H50.6076V15.6508H47.3775V16.755H50.2219V18.099H47.3775V19.2512H50.7522Z" fill="#42424F"/>
<path d="M41.3995 18.9631H40.3871V20.6431H38.5551V14.2587H41.4959C42.0745 14.2587 42.6048 14.3547 42.9904 14.5467C43.4244 14.7388 43.7619 15.0268 44.003 15.3628C44.244 15.6988 44.3403 16.1309 44.3403 16.6109C44.3403 17.0909 44.244 17.475 44.003 17.8111C43.8582 18.1951 43.569 18.435 43.1352 18.6751L44.5332 20.6913H42.6048L41.3995 18.9631ZM42.5566 16.6109C42.5566 16.3228 42.4602 16.0829 42.2673 15.9388C42.0745 15.7948 41.7853 15.6988 41.3995 15.6988H40.3871V17.571H41.4478C41.8334 17.571 42.1226 17.475 42.3156 17.3309C42.4602 17.139 42.5566 16.9469 42.5566 16.6109Z" fill="#42424F"/>
<path d="M33.975 15.6988H31.9984V14.2587H37.7355V15.6988H35.7588V20.6913H33.975V15.6988Z" fill="#42424F"/>
<circle cx="13.4174" cy="13.4174" r="12.4174" stroke="#42424F" stroke-width="1.82123"/>
<path d="M8.28491 2.11753L11.886 6.87755M11.886 6.87755L15.4456 1.16553M11.886 6.87755L19.295 9.44383M11.886 6.87755L12.6724 13.1691M11.886 6.87755L5.18055 12.2998M11.886 6.87755H2.86262M19.295 9.44383L19.0053 2.32449M19.295 9.44383L25.0071 8.94713L19.7917 15.8181M19.295 9.44383L17.6394 12.0387M19.7917 15.8181L25.0485 17.7635M19.7917 15.8181L13.4175 18.55M19.7917 15.8181L17.6394 12.0387M13.4175 18.55V25.8349M13.4175 18.55L6.29812 15.6939M13.4175 18.55L12.6724 13.1691M13.4175 18.55L17.6394 12.0387M6.29812 15.6939L1.78645 17.7635M6.29812 15.6939L5.18055 12.2998M5.18055 12.2998L12.6724 13.1691M5.18055 12.2998L1.62088 9.52661" stroke="#42424F" stroke-width="1.07618" stroke-linecap="round" stroke-linejoin="round"/>
</svg>