<svg width="25" height="24" viewBox="0 0 25 24" fill="none" xmlns="http://www.w3.org/2000/svg">
<path d="M12.0618 2C6.54743 2 2.06177 6.48566 2.06177 12C2.06177 17.5143 6.54743 22 12.0618 22C17.5761 22 22.0618 17.5136 22.0618 12C22.0618 6.48645 17.5761 2 12.0618 2Z" fill="#7161D6"/>
<path d="M15.9347 11.1557H12.8364V8.05732C12.8364 7.62975 12.4901 7.28271 12.0618 7.28271C11.6334 7.28271 11.2872 7.62975 11.2872 8.05732V11.1557H8.18879C7.76043 11.1557 7.41418 11.5027 7.41418 11.9303C7.41418 12.3579 7.76043 12.7049 8.18879 12.7049H11.2872V15.8033C11.2872 16.2308 11.6334 16.5779 12.0618 16.5779C12.4901 16.5779 12.8364 16.2308 12.8364 15.8033V12.7049H15.9347C16.3631 12.7049 16.7093 12.3579 16.7093 11.9303C16.7093 11.5027 16.3631 11.1557 15.9347 11.1557Z" fill="white"/>
</svg>
