<svg width="25" height="24" viewBox="0 0 25 24" fill="none" xmlns="http://www.w3.org/2000/svg">
<path d="M21.8588 12C21.8588 16.9706 17.8293 21 12.8588 21C7.8882 21 3.85876 16.9706 3.85876 12C3.85876 7.02944 7.8882 3 12.8588 3C17.8293 3 21.8588 7.02944 21.8588 12Z" fill="#7161D6"/>
<path d="M11.8588 7C11.8588 6.44771 12.3065 6 12.8588 6C13.411 6 13.8588 6.44772 13.8588 7V13C13.8588 13.5523 13.411 14 12.8588 14C12.3065 14 11.8588 13.5523 11.8588 13V7Z" fill="white"/>
<path d="M11.8588 16C11.8588 15.4477 12.3065 15 12.8588 15C13.411 15 13.8588 15.4477 13.8588 16C13.8588 16.5523 13.411 17 12.8588 17C12.3065 17 11.8588 16.5523 11.8588 16Z" fill="white"/>
</svg>
