<svg width="25" height="24" viewBox="0 0 25 24" fill="none" xmlns="http://www.w3.org/2000/svg">
<path d="M11.8758 4.57143C12.3127 3.80952 13.4048 3.80952 13.8417 4.57143L21.705 18.2857C22.1419 19.0476 21.5958 20 20.7221 20H4.99543C4.12173 20 3.57566 19.0476 4.01252 18.2857L11.8758 4.57143Z" fill="#7161D6"/>
<path d="M13.4262 10.2858C13.4262 9.97019 13.1722 9.71436 12.8587 9.71436C12.5453 9.71436 12.2913 9.97019 12.2913 10.2858V14.8688C12.2913 15.1843 12.5453 15.4402 12.8587 15.4402C13.1722 15.4402 13.4262 15.1843 13.4262 14.8687V10.2858Z" fill="white"/>
<path d="M13.4263 16.7273C13.4263 16.4117 13.1723 16.1559 12.8589 16.1559C12.5454 16.1559 12.2914 16.4117 12.2914 16.7273C12.2914 17.0429 12.5454 17.2988 12.8589 17.2988C13.1723 17.2988 13.4263 17.0429 13.4263 16.7273Z" fill="white"/>
</svg>
