<svg width="25" height="24" viewBox="0 0 25 24" fill="none" xmlns="http://www.w3.org/2000/svg">
<path d="M20.1528 6.59301H19.6271V5H6.08984V9.29855C6.08984 10.5933 6.45676 11.8519 7.15086 12.9382C7.4634 13.4274 7.83586 13.871 8.2568 14.2615H10.3044H15.4125H17.4601C17.881 13.871 18.2535 13.4273 18.5661 12.9382C18.7572 12.6391 18.9225 12.3266 19.0632 12.0041H20.1529C21.6448 12.0041 22.8585 10.7904 22.8585 9.29852C22.8584 7.80672 21.6447 6.59301 20.1528 6.59301ZM20.1528 10.816H19.4548C19.5682 10.3215 19.627 9.81297 19.627 9.29852V7.78117H20.1528C20.9895 7.78117 21.6702 8.46187 21.6702 9.29852C21.6703 10.1353 20.9895 10.816 20.1528 10.816Z" fill="#202020"/>
<path d="M15.6897 15.4497H10.0278H2.85876V15.6478C2.85876 17.0761 4.02083 18.2383 5.44919 18.2383H20.2683C21.6967 18.2383 22.8588 17.0761 22.8588 15.6478V15.4497H15.6897Z" fill="#202020"/>
<path d="M11.7159 12L8.85876 9.60077L9.66448 8.92418L11.7159 10.642L16.0531 7L16.8588 7.68138L11.7159 12Z" fill="white"/>
</svg>
