<svg width="25" height="24" viewBox="0 0 25 24" fill="none" xmlns="http://www.w3.org/2000/svg">
<path d="M12.8588 3C7.89639 3 3.85876 7.03763 3.85876 12C3.85876 16.9624 7.89639 21 12.8588 21C17.8211 21 21.8588 16.9624 21.8588 12C21.8588 7.03763 17.8211 3 12.8588 3ZM12.8588 19.875C8.51626 19.875 4.98376 16.3425 4.98376 12C4.98376 7.6575 8.51626 4.125 12.8588 4.125C17.2013 4.125 20.7338 7.6575 20.7338 12C20.7338 16.3425 17.2013 19.875 12.8588 19.875Z" fill="#BBBBBB"/>
<path d="M12.8593 6.9375C10.4074 6.9375 8.35818 8.69025 7.8958 11.0078L7.1218 9.97613L6.2218 10.6511L7.9093 12.9011C8.01955 13.0485 8.18886 13.1261 8.35986 13.1261C8.47686 13.1261 8.59555 13.0896 8.6968 13.0136L10.9468 11.3261L10.2718 10.4261L8.97243 11.4009C9.26268 9.51375 10.8922 8.0625 12.8593 8.0625C15.0306 8.0625 16.7968 9.82875 16.7968 12C16.7968 14.1712 15.0306 15.9375 12.8593 15.9375V17.0625C15.6504 17.0625 17.9218 14.7911 17.9218 12C17.9218 9.20888 15.6504 6.9375 12.8593 6.9375Z" fill="#BBBBBB"/>
<path fill-rule="evenodd" clip-rule="evenodd" d="M18.9087 18.1L6.25873 5.99999L6.94995 5.27734L19.6 17.3773L18.9087 18.1Z" fill="#7161D6"/>
</svg>
