<svg width="25" height="24" viewBox="0 0 25 24" fill="none" xmlns="http://www.w3.org/2000/svg">
<path d="M12.8588 3C7.89639 3 3.85876 7.03763 3.85876 12C3.85876 16.9624 7.89639 21 12.8588 21C17.8211 21 21.8588 16.9624 21.8588 12C21.8588 7.03763 17.8211 3 12.8588 3ZM12.8588 19.875C8.51626 19.875 4.98376 16.3425 4.98376 12C4.98376 7.6575 8.51626 4.125 12.8588 4.125C17.2013 4.125 20.7338 7.6575 20.7338 12C20.7338 16.3425 17.2013 19.875 12.8588 19.875Z" fill="#BBBBBB"/>
<path d="M12.8593 6.9375C10.4074 6.9375 8.35818 8.69025 7.8958 11.0078L7.1218 9.97613L6.2218 10.6511L7.9093 12.9011C8.01955 13.0485 8.18886 13.1261 8.35986 13.1261C8.47686 13.1261 8.59555 13.0896 8.6968 13.0136L10.9468 11.3261L10.2718 10.4261L8.97243 11.4009C9.26268 9.51375 10.8922 8.0625 12.8593 8.0625C14.261 8.0625 15.5683 8.81794 16.2709 10.0335L17.2445 9.47044C16.3417 7.90838 14.6615 6.9375 12.8593 6.9375Z" fill="#BBBBBB"/>
<path d="M17.7984 11.6485C17.6049 11.406 17.2527 11.3666 17.0109 11.5585L14.8734 13.246L15.5703 14.1285L16.7392 13.2055C16.4304 15.0713 14.8104 16.5 12.8591 16.5C11.4579 16.5 10.1506 15.7457 9.44805 14.5307L8.47437 15.0943C9.37774 16.6553 11.0574 17.625 12.8591 17.625C15.3329 17.625 17.3939 15.8402 17.8321 13.4918L18.7197 14.6016L19.5984 13.899L17.7984 11.6485Z" fill="#BBBBBB"/>
<path fill-rule="evenodd" clip-rule="evenodd" d="M18.9087 18.1L6.25873 5.99999L6.94995 5.27734L19.6 17.3773L18.9087 18.1Z" fill="#7161D6"/>
</svg>
