<svg width="25" height="24" viewBox="0 0 25 24" fill="none" xmlns="http://www.w3.org/2000/svg">
<path d="M12.9346 5.28592C13.842 5.28592 14.5775 4.55034 14.5775 3.64296C14.5775 2.73558 13.842 2 12.9346 2C12.0272 2 11.2916 2.73558 11.2916 3.64296C11.2916 4.55034 12.0272 5.28592 12.9346 5.28592Z" fill="#202020"/>
<path d="M18.0039 12.5318C17.5406 7.3263 15.0599 6.28797 15.0599 6.28797C15.0599 6.28797 12.6623 4.84668 10.1385 6.68231C8.50226 8.17159 8.12441 10.445 7.86576 12.6409C7.73494 13.7568 9.48024 13.7433 9.60993 12.6409C9.76437 11.3304 9.98478 10.014 10.6351 8.8928L10.6321 10.1579L10.6202 16.2376V21.0608C10.6202 21.5792 11.0002 22.0001 11.534 22.0001C12.0674 22.0001 12.5004 21.5792 12.5004 21.0608V14.1665H13.3543C13.3543 15.7818 13.3543 19.4684 13.3543 21.0829C13.3543 22.2074 15.0981 22.2074 15.0981 21.0829C15.0981 19.4676 15.0981 17.8521 15.0981 16.2372L15.1719 10.1455C15.1727 9.56415 15.1734 9.04461 15.1734 8.68326C15.8703 9.82504 16.1004 11.1812 16.259 12.5311C16.3898 13.6343 18.1347 13.6477 18.0039 12.5318Z" fill="#202020"/>
</svg>
