<svg width="25" height="24" viewBox="0 0 25 24" fill="none" xmlns="http://www.w3.org/2000/svg">
<path fill-rule="evenodd" clip-rule="evenodd" d="M12.8588 4C8.44049 4 4.85876 7.58172 4.85876 12C4.85876 16.4183 8.44049 20 12.8588 20C17.277 20 20.8588 16.4183 20.8588 12C20.8588 7.58172 17.277 4 12.8588 4ZM2.85876 12C2.85876 6.47715 7.33592 2 12.8588 2C18.3816 2 22.8588 6.47715 22.8588 12C22.8588 17.5228 18.3816 22 12.8588 22C7.33592 22 2.85876 17.5228 2.85876 12ZM12.8588 5.6C13.411 5.6 13.8588 6.04772 13.8588 6.6V7.48203C14.4598 7.58339 14.9514 7.7658 15.331 7.95557C15.6155 8.09783 15.8351 8.24315 15.99 8.35938C16.0676 8.41754 16.1292 8.46863 16.1751 8.50875C16.198 8.52882 16.217 8.54618 16.2322 8.56036L16.2519 8.57918L16.2596 8.5867L16.2629 8.58996L16.2652 8.59219C16.2655 8.59254 16.2659 8.59289 15.5588 9.3L16.2652 8.59219C16.6557 8.98272 16.6564 9.61658 16.2659 10.0071C15.8791 10.3939 15.2544 10.3976 14.863 10.0183C14.8619 10.0173 14.8603 10.0158 14.8581 10.0139C14.8477 10.0048 14.825 9.98559 14.79 9.95937C14.72 9.90685 14.602 9.82717 14.4366 9.74443C14.1088 9.58057 13.586 9.4 12.8588 9.4C12.3294 9.4 11.8377 9.48389 11.5161 9.64929C11.3668 9.72608 11.2856 9.80426 11.2409 9.8705C11.2015 9.92892 11.1588 10.0235 11.1588 10.2C11.1588 10.4297 11.2079 10.5275 11.2323 10.5655C11.2575 10.6048 11.3079 10.6601 11.4369 10.7223C11.7535 10.875 12.2336 10.9382 12.9627 11.0144C12.9905 11.0173 13.0188 11.0202 13.0476 11.0232C13.6595 11.0865 14.4819 11.1717 15.145 11.4876C15.5216 11.6669 15.8943 11.9393 16.1658 12.3581C16.4385 12.7787 16.5588 13.2693 16.5588 13.8C16.5588 14.4238 16.3998 14.9752 16.0741 15.4261C15.753 15.8707 15.3258 16.1402 14.9177 16.3035C14.5682 16.4433 14.1979 16.5173 13.8588 16.5564V17.4C13.8588 17.9523 13.411 18.4 12.8588 18.4C12.3065 18.4 11.8588 17.9523 11.8588 17.4V16.518C11.2577 16.4166 10.7661 16.2342 10.3866 16.0444C10.102 15.9022 9.88248 15.7568 9.72751 15.6406C9.64996 15.5825 9.5883 15.5314 9.54245 15.4912C9.51951 15.4712 9.50049 15.4538 9.48537 15.4396L9.46561 15.4208L9.45791 15.4133L9.4546 15.41L9.45308 15.4085L9.45236 15.4078C9.45201 15.4075 9.45167 15.4071 10.1367 14.7221L9.45236 15.4078C9.06184 15.0173 9.06113 14.3834 9.45166 13.9929C9.83842 13.6061 10.4632 13.6024 10.8545 13.9817C10.8556 13.9827 10.8572 13.9842 10.8595 13.9861C10.8699 13.9952 10.8926 14.0144 10.9275 14.0406C10.9976 14.0932 11.1155 14.1728 11.281 14.2556C11.6087 14.4194 12.1315 14.6 12.8588 14.6C13.3427 14.6 13.8208 14.5882 14.1749 14.4465C14.3292 14.3848 14.4083 14.3168 14.4528 14.2551C14.4928 14.1998 14.5588 14.0762 14.5588 13.8C14.5588 13.5747 14.5103 13.4811 14.4876 13.4461C14.4639 13.4094 14.4147 13.355 14.285 13.2932C13.9668 13.1416 13.4858 13.0799 12.7549 13.0035C12.7301 13.001 12.705 12.9983 12.6794 12.9957C12.0649 12.9319 11.2363 12.846 10.5682 12.5238C10.1909 12.3419 9.81938 12.0667 9.54928 11.6459C9.27838 11.224 9.15876 10.7323 9.15876 10.2C9.15876 9.0368 9.80888 8.2783 10.6014 7.87071C10.999 7.66622 11.4354 7.54472 11.8588 7.47654V6.6C11.8588 6.04772 12.3065 5.6 12.8588 5.6Z" fill="#7161D6"/>
</svg>
