<svg width="25" height="24" viewBox="0 0 25 24" fill="none" xmlns="http://www.w3.org/2000/svg">
<path fill-rule="evenodd" clip-rule="evenodd" d="M12.8588 19C16.7248 19 19.8588 15.866 19.8588 12C19.8588 8.13401 16.7248 5 12.8588 5C8.99277 5 5.85876 8.13401 5.85876 12C5.85876 15.866 8.99277 19 12.8588 19ZM12.8588 21C17.8293 21 21.8588 16.9706 21.8588 12C21.8588 7.02944 17.8293 3 12.8588 3C7.8882 3 3.85876 7.02944 3.85876 12C3.85876 16.9706 7.8882 21 12.8588 21Z" fill="#202020"/>
<path fill-rule="evenodd" clip-rule="evenodd" d="M17.5157 17.6566L6.202 6.34292L7.61621 4.92871L18.9299 16.2424L17.5157 17.6566Z" fill="#202020"/>
</svg>
