<svg width="25" height="24" viewBox="0 0 25 24" fill="none" xmlns="http://www.w3.org/2000/svg">
<path d="M12.3889 5.84612L9.76392 3.22112C9.47142 2.92825 8.99592 2.92825 8.70342 3.22112L6.07842 5.84612C5.78555 6.139 5.78555 6.61375 6.07842 6.90662C6.37092 7.1995 6.84642 7.1995 7.13892 6.90662L8.48367 5.56187V20.2514C8.48367 20.6654 8.81967 21.0014 9.23367 21.0014C9.64767 21.0014 9.98368 20.6654 9.98368 20.2514V5.56187L11.3284 6.90662C11.4747 7.05325 11.6667 7.12637 11.8587 7.12637C12.0507 7.12637 12.2427 7.05325 12.3889 6.90662C12.6818 6.61375 12.6818 6.139 12.3889 5.84612Z" fill="#7161D6"/>
<path d="M20.2639 17.0947C19.971 16.8018 19.4963 16.8018 19.2034 17.0947L17.8586 18.4394V3.75C17.8586 3.336 17.5226 3 17.1086 3C16.6947 3 16.3587 3.336 16.3587 3.75V18.4394L15.0139 17.0947C14.721 16.8018 14.2459 16.8018 13.9534 17.0947C13.6605 17.3876 13.6605 17.8623 13.9534 18.1552L16.5784 20.7802C16.725 20.9268 16.9166 20.9999 17.1086 20.9999C17.3006 20.9999 17.4923 20.9268 17.6389 20.7802L20.2639 18.1552C20.5568 17.8623 20.5568 17.3876 20.2639 17.0947Z" fill="#7161D6"/>
</svg>
